<?xml version="1.0" encoding="UTF-8"?> <svg xmlns="http://www.w3.org/2000/svg" width="161" height="52" viewBox="0 0 161 52" fill="none"> <g clip-path="url(#clip0_1320_3336)"> <mask id="mask0_1320_3336" style="mask-type:alpha" maskUnits="userSpaceOnUse" x="21" y="20" width="12" height="12"> <path d="M23.3309 22.5227C21.3052 24.775 21.4723 28.2503 23.7187 30.282C25.9651 32.3204 29.4283 32.1467 31.4607 29.9011C33.4931 27.6488 33.3193 24.1735 31.0729 22.1418C30.0233 21.1861 28.7062 20.7183 27.3958 20.7183C25.8982 20.7183 24.414 21.3264 23.3309 22.5227Z" fill="black"></path> </mask> <g mask="url(#mask0_1320_3336)"> <path d="M33.4934 20.7114H21.2988V32.327H33.4934V20.7114Z" fill="url(#paint0_radial_1320_3336)"></path> </g> <mask id="mask1_1320_3336" style="mask-type:alpha" maskUnits="userSpaceOnUse" x="11" y="0" width="37" height="15"> <path d="M11.6914 5.21296C19.761 1.30324 25.3502 4.00328 28.82 7.41175C29.2814 7.86622 29.7025 8.32736 30.0903 8.78851C32.2966 11.4284 33.3262 14.0282 33.3262 14.0282C34.7368 14.2888 36.0472 14.3624 37.2707 14.3022C37.3509 14.2955 37.4245 14.2955 37.5047 14.2888C37.5782 14.2822 37.6451 14.2755 37.7186 14.2688C40.433 14.0215 43.9564 12.9856 47.1788 9.75758C47.2925 9.65065 47.3995 9.53035 47.5064 9.41006C47.005 8.81524 46.4902 8.22712 45.9353 7.66572C40.8074 2.55301 34.095 0 27.3893 0C21.8737 0 16.3446 1.73765 11.6914 5.21296Z" fill="black"></path> </mask> <g mask="url(#mask1_1320_3336)"> <path d="M16.6888 -12.4104L6.71289 12.3562L42.5148 26.7668L52.4906 2.00015L16.6888 -12.4104Z" fill="url(#paint1_linear_1320_3336)"></path> </g> <mask id="mask2_1320_3336" style="mask-type:alpha" maskUnits="userSpaceOnUse" x="1" y="16" width="16" height="34"> <path d="M1.89062 19.1143C-1.50569 31.8794 5.09305 44.9385 16.8932 49.9977C9.47215 44.9652 9.01084 38.7765 10.2343 34.0648C10.3948 33.4432 10.5887 32.8418 10.7892 32.2804C11.9793 29.0523 13.7109 26.8602 13.7109 26.8602C13.2362 25.5102 12.6345 24.3406 11.9726 23.3047C11.9258 23.2379 11.8924 23.1777 11.8456 23.1042C11.8054 23.0441 11.7653 22.9906 11.7185 22.9304C10.1474 20.7049 7.48651 18.172 3.08067 16.9957C2.9269 16.9556 2.77313 16.9155 2.61936 16.8821C2.35193 17.6172 2.10456 18.3524 1.89062 19.1143Z" fill="black"></path> </mask> <g mask="url(#mask2_1320_3336)"> <path d="M16.5292 14.331L-6.10938 17.5378L-1.1455 52.5556L21.4931 49.3488L16.5292 14.331Z" fill="url(#paint2_linear_1320_3336)"></path> </g> <mask id="mask3_1320_3336" style="mask-type:alpha" maskUnits="userSpaceOnUse" x="30" y="23" width="24" height="30"> <path d="M42.687 36.8649C42.0652 37.0387 41.4568 37.1723 40.8618 37.2793C37.4722 37.8674 34.7043 37.4664 34.7043 37.4664C33.775 38.5558 33.0529 39.6585 32.4913 40.7479C32.4579 40.8214 32.4178 40.8815 32.3844 40.9551C32.3509 41.0219 32.3242 41.082 32.2975 41.1489C31.1542 43.6217 30.2918 47.1905 31.4751 51.5948C31.5152 51.7419 31.562 51.9023 31.6088 52.056C32.371 51.9223 33.1398 51.7686 33.902 51.5681C46.6649 48.1262 54.6743 35.8891 53.1567 23.1375C52.5082 32.073 47.3803 35.5617 42.687 36.8649Z" fill="black"></path> </mask> <g mask="url(#mask3_1320_3336)"> <path d="M45.4124 11.2927L16.252 34.1226L39.5681 63.883L68.7285 41.0531L45.4124 11.2927Z" fill="url(#paint3_linear_1320_3336)"></path> </g> <mask id="mask4_1320_3336" style="mask-type:alpha" maskUnits="userSpaceOnUse" x="3" y="3" width="26" height="24"> <path d="M11.6928 5.21305C11.6928 5.21305 5.9966 8.78192 3.02148 15.9397C3.80371 16.0734 11.7463 17.6774 14.708 26.506C15.4301 26.0448 17.6497 24.2871 19.1473 19.4551C20.9524 13.6072 24.3821 9.29653 28.8281 7.41853C28.8281 7.41853 25.7928 3.10113 19.6353 3.10113C17.4023 3.09445 14.7548 3.66253 11.6928 5.21305Z" fill="black"></path> </mask> <g mask="url(#mask4_1320_3336)"> <path d="M10.7157 -8.70798L-7.68945 19.5234L21.1345 38.3015L39.5396 10.0701L10.7157 -8.70798Z" fill="url(#paint4_linear_1320_3336)"></path> </g> <mask id="mask5_1320_3336" style="mask-type:alpha" maskUnits="userSpaceOnUse" x="9" y="34" width="25" height="19"> <path d="M16.8943 49.9976C16.8943 49.9976 22.8244 53.1455 30.5062 52.143C30.3658 51.762 29.7441 49.8974 29.7441 47.2909C29.7441 44.3302 30.5664 40.4071 33.8557 36.7113L33.8892 36.6578C33.3476 36.083 31.469 34.6662 26.6286 35.7689C20.665 37.1323 14.0796 36.9719 10.2287 34.0647C10.2354 34.0714 6.10362 42.9535 16.8943 49.9976Z" fill="black"></path> </mask> <g mask="url(#mask5_1320_3336)"> <path d="M33.6079 31.2632L4.17773 34.262L6.38845 55.9428L35.8186 52.944L33.6079 31.2632Z" fill="url(#paint5_linear_1320_3336)"></path> </g> <mask id="mask6_1320_3336" style="mask-type:alpha" maskUnits="userSpaceOnUse" x="32" y="10" width="22" height="27"> <path d="M36.5901 15.5254C35.507 15.5254 34.3571 15.4184 33.1403 15.1645L33.0801 15.1511C32.8595 15.9665 32.6723 18.2722 35.9616 21.8143C40.1201 26.2988 43.2757 32.0798 42.6807 36.8651C42.6807 36.8651 52.4485 36.0029 53.1571 23.1309C53.1571 23.1309 52.9165 16.4209 48.2031 10.2656C47.3607 11.2948 43.3225 15.5187 36.5901 15.5254Z" fill="black"></path> </mask> <g mask="url(#mask6_1320_3336)"> <path d="M52.3834 6.36235L27.6074 11.2683L33.4517 40.7621L58.2277 35.8561L52.3834 6.36235Z" fill="url(#paint6_linear_1320_3336)"></path> </g> <rect x="61.4062" y="4.32593" width="0.550573" height="43.7706" fill="#333333"></rect> <path d="M71.3216 18.7641H71.7321L74.1836 15.4232H76.1676L73.3512 18.9123C73.5793 18.9807 73.7845 19.1251 73.967 19.3456C74.157 19.566 74.3546 19.8625 74.5599 20.235C74.7727 20.5998 75.0122 21.0483 75.2782 21.5804C75.5519 22.1049 75.8901 22.713 76.293 23.4048H74.3318C74.0582 22.9335 73.8301 22.5268 73.6477 22.1847C73.4729 21.8351 73.3246 21.5386 73.203 21.2954C73.0814 21.0521 72.975 20.8545 72.8837 20.7024C72.8001 20.5504 72.7127 20.4326 72.6215 20.349C72.5379 20.2578 72.4429 20.1969 72.3364 20.1665C72.23 20.1285 72.097 20.1095 71.9374 20.1095H71.3216V23.4048H69.6113V15.4232H71.3216V18.7641ZM81.2708 22.0365C81.5597 22.0365 81.8257 21.9833 82.069 21.8769C82.3122 21.7705 82.5213 21.6108 82.6961 21.398C82.871 21.1775 83.004 20.9039 83.0952 20.577C83.194 20.2502 83.2434 19.8625 83.2434 19.414C83.2434 18.5094 83.0534 17.8481 82.6733 17.43C82.2932 17.0043 81.7915 16.7915 81.1682 16.7915C80.887 16.7915 80.6209 16.8447 80.3701 16.9511C80.1268 17.0575 79.914 17.2209 79.7315 17.4414C79.5491 17.6542 79.4047 17.9279 79.2982 18.2624C79.1994 18.5892 79.15 18.9731 79.15 19.414C79.15 19.8625 79.2032 20.2502 79.3096 20.577C79.4237 20.9039 79.5757 21.1775 79.7657 21.398C79.9558 21.6108 80.18 21.7705 80.4385 21.8769C80.6969 21.9833 80.9744 22.0365 81.2708 22.0365ZM81.2138 23.5416C80.6361 23.5416 80.1078 23.4542 79.6289 23.2794C79.1576 23.0969 78.7509 22.8309 78.4089 22.4812C78.0668 22.1315 77.8007 21.702 77.6107 21.1927C77.4283 20.6758 77.337 20.0829 77.337 19.414C77.337 18.7451 77.4321 18.1559 77.6221 17.6466C77.8197 17.1297 78.0896 16.6964 78.4317 16.3468C78.7737 15.9971 79.1766 15.7349 79.6403 15.56C80.1116 15.3776 80.6209 15.2864 81.1682 15.2864C81.7839 15.2864 82.3312 15.3814 82.8101 15.5714C83.2966 15.7615 83.7033 16.0351 84.0302 16.3924C84.3647 16.7421 84.6193 17.1753 84.7941 17.6922C84.969 18.2015 85.0564 18.7755 85.0564 19.414C85.0564 20.1209 84.9576 20.7367 84.7599 21.2612C84.5699 21.7781 84.3 22.2075 83.9504 22.5496C83.6083 22.8841 83.2016 23.1349 82.7303 23.3022C82.2666 23.4618 81.7611 23.5416 81.2138 23.5416ZM94.197 23.4048H92.4867V20.0753H89.18V23.4048H87.4697V15.4232H89.18V18.5474H92.4867V15.4232H94.197V23.4048ZM102.812 23.0855C102.706 23.1387 102.588 23.1919 102.459 23.2452C102.337 23.2984 102.189 23.3478 102.014 23.3934C101.847 23.439 101.649 23.4732 101.421 23.496C101.201 23.5264 100.946 23.5416 100.657 23.5416C100.049 23.5416 99.4944 23.4542 98.9927 23.2794C98.4986 23.1045 98.0729 22.8499 97.7156 22.5154C97.3659 22.1733 97.0923 21.7515 96.8946 21.2498C96.7046 20.7481 96.6096 20.1703 96.6096 19.5166C96.6096 18.8325 96.7046 18.2281 96.8946 17.7036C97.0923 17.1715 97.3735 16.7268 97.7384 16.3696C98.1033 16.0123 98.5442 15.7425 99.0611 15.56C99.5856 15.3776 100.175 15.2864 100.828 15.2864C101.262 15.2864 101.649 15.3244 101.991 15.4004C102.341 15.4764 102.622 15.5638 102.835 15.6626L102.459 17.0993C102.216 17.0157 101.969 16.9549 101.718 16.9169C101.467 16.8789 101.25 16.8599 101.068 16.8599C100.673 16.8599 100.312 16.9093 99.9846 17.0081C99.6654 17.1069 99.3879 17.2628 99.1523 17.4756C98.9242 17.6808 98.7456 17.9469 98.6164 18.2738C98.4871 18.593 98.4225 18.9731 98.4225 19.414C98.4225 20.2578 98.6582 20.8925 99.1295 21.3182C99.6084 21.7439 100.251 21.9567 101.056 21.9567C101.239 21.9567 101.459 21.9339 101.718 21.8883C101.976 21.8351 102.227 21.7553 102.47 21.6488L102.812 23.0855ZM112.012 23.4048H110.301V17.8405L107.086 23.4048H105.25V15.4232H106.96V20.9761L110.187 15.4232H112.012V23.4048ZM120.626 23.0855C120.52 23.1387 120.402 23.1919 120.273 23.2452C120.151 23.2984 120.003 23.3478 119.828 23.3934C119.661 23.439 119.463 23.4732 119.235 23.496C119.015 23.5264 118.76 23.5416 118.471 23.5416C117.863 23.5416 117.308 23.4542 116.806 23.2794C116.312 23.1045 115.887 22.8499 115.529 22.5154C115.18 22.1733 114.906 21.7515 114.708 21.2498C114.518 20.7481 114.423 20.1703 114.423 19.5166C114.423 18.8325 114.518 18.2281 114.708 17.7036C114.906 17.1715 115.187 16.7268 115.552 16.3696C115.917 16.0123 116.358 15.7425 116.875 15.56C117.399 15.3776 117.989 15.2864 118.642 15.2864C119.076 15.2864 119.463 15.3244 119.805 15.4004C120.155 15.4764 120.436 15.5638 120.649 15.6626L120.273 17.0993C120.03 17.0157 119.782 16.9549 119.532 16.9169C119.281 16.8789 119.064 16.8599 118.882 16.8599C118.486 16.8599 118.125 16.9093 117.798 17.0081C117.479 17.1069 117.202 17.2628 116.966 17.4756C116.738 17.6808 116.559 17.9469 116.43 18.2738C116.301 18.593 116.236 18.9731 116.236 19.414C116.236 20.2578 116.472 20.8925 116.943 21.3182C117.422 21.7439 118.065 21.9567 118.87 21.9567C119.053 21.9567 119.273 21.9339 119.532 21.8883C119.79 21.8351 120.041 21.7553 120.284 21.6488L120.626 23.0855ZM126.45 23.4048H124.74V16.9967H122.471V15.4232H128.708V16.9967H126.45V23.4048ZM134.071 20.8279H130.308V19.5508H134.071V20.8279ZM140.485 22.0365C140.774 22.0365 141.04 21.9833 141.283 21.8769C141.526 21.7705 141.735 21.6108 141.91 21.398C142.085 21.1775 142.218 20.9039 142.309 20.577C142.408 20.2502 142.457 19.8625 142.457 19.414C142.457 18.5094 142.267 17.8481 141.887 17.43C141.507 17.0043 141.005 16.7915 140.382 16.7915C140.101 16.7915 139.835 16.8447 139.584 16.9511C139.341 17.0575 139.128 17.2209 138.945 17.4414C138.763 17.6542 138.619 17.9279 138.512 18.2624C138.413 18.5892 138.364 18.9731 138.364 19.414C138.364 19.8625 138.417 20.2502 138.524 20.577C138.638 20.9039 138.79 21.1775 138.98 21.398C139.17 21.6108 139.394 21.7705 139.652 21.8769C139.911 21.9833 140.188 22.0365 140.485 22.0365ZM140.428 23.5416C139.85 23.5416 139.322 23.4542 138.843 23.2794C138.372 23.0969 137.965 22.8309 137.623 22.4812C137.281 22.1315 137.015 21.702 136.825 21.1927C136.642 20.6758 136.551 20.0829 136.551 19.414C136.551 18.7451 136.646 18.1559 136.836 17.6466C137.034 17.1297 137.304 16.6964 137.646 16.3468C137.988 15.9971 138.391 15.7349 138.854 15.56C139.326 15.3776 139.835 15.2864 140.382 15.2864C140.998 15.2864 141.545 15.3814 142.024 15.5714C142.511 15.7615 142.917 16.0351 143.244 16.3924C143.579 16.7421 143.833 17.1753 144.008 17.6922C144.183 18.2015 144.27 18.7755 144.27 19.414C144.27 20.1209 144.171 20.7367 143.974 21.2612C143.784 21.7781 143.514 22.2075 143.164 22.5496C142.822 22.8841 142.416 23.1349 141.944 23.3022C141.481 23.4618 140.975 23.5416 140.428 23.5416ZM152.613 23.0855C152.506 23.1387 152.389 23.1919 152.259 23.2452C152.138 23.2984 151.989 23.3478 151.815 23.3934C151.647 23.439 151.45 23.4732 151.222 23.496C151.001 23.5264 150.747 23.5416 150.458 23.5416C149.85 23.5416 149.295 23.4542 148.793 23.2794C148.299 23.1045 147.873 22.8499 147.516 22.5154C147.166 22.1733 146.893 21.7515 146.695 21.2498C146.505 20.7481 146.41 20.1703 146.41 19.5166C146.41 18.8325 146.505 18.2281 146.695 17.7036C146.893 17.1715 147.174 16.7268 147.539 16.3696C147.904 16.0123 148.345 15.7425 148.861 15.56C149.386 15.3776 149.975 15.2864 150.629 15.2864C151.062 15.2864 151.45 15.3244 151.792 15.4004C152.141 15.4764 152.423 15.5638 152.636 15.6626L152.259 17.0993C152.016 17.0157 151.769 16.9549 151.518 16.9169C151.267 16.8789 151.051 16.8599 150.868 16.8599C150.473 16.8599 150.112 16.9093 149.785 17.0081C149.466 17.1069 149.188 17.2628 148.953 17.4756C148.725 17.6808 148.546 17.9469 148.417 18.2738C148.288 18.593 148.223 18.9731 148.223 19.414C148.223 20.2578 148.459 20.8925 148.93 21.3182C149.409 21.7439 150.051 21.9567 150.857 21.9567C151.039 21.9567 151.26 21.9339 151.518 21.8883C151.777 21.8351 152.027 21.7553 152.271 21.6488L152.613 23.0855Z" fill="#333333"></path> <path d="M70.457 34.8253H71.4296C71.9339 34.8253 72.3151 34.7233 72.5733 34.5191C72.8375 34.315 72.9696 34.0028 72.9696 33.5825C72.9696 33.1503 72.8375 32.8381 72.5733 32.6459C72.3151 32.4538 71.9339 32.3578 71.4296 32.3578H70.457V34.8253ZM70.457 37.9053H69.6465V31.6013H71.5016C71.8619 31.6013 72.1831 31.6403 72.4652 31.7183C72.7534 31.7904 72.9996 31.9075 73.2037 32.0696C73.4078 32.2317 73.5639 32.4358 73.672 32.682C73.7801 32.9281 73.8341 33.2223 73.8341 33.5645C73.8341 34.2189 73.621 34.7203 73.1947 35.0685C72.7744 35.4107 72.1861 35.5818 71.4296 35.5818H70.457V37.9053ZM78.5687 37.2389C79.163 37.2389 79.6283 37.0317 79.9645 36.6175C80.3068 36.1972 80.4779 35.5758 80.4779 34.7533C80.4779 34.321 80.4298 33.9488 80.3338 33.6366C80.2437 33.3244 80.1116 33.0662 79.9375 32.8621C79.7634 32.6579 79.5503 32.5078 79.2981 32.4118C79.052 32.3157 78.7728 32.2677 78.4606 32.2677C78.1844 32.2677 77.9262 32.3187 77.6861 32.4208C77.4459 32.5229 77.2388 32.676 77.0647 32.8801C76.8906 33.0842 76.7525 33.3424 76.6504 33.6546C76.5484 33.9668 76.4973 34.333 76.4973 34.7533C76.4973 35.1675 76.5454 35.5308 76.6414 35.843C76.7435 36.1552 76.8846 36.4163 77.0647 36.6265C77.2448 36.8306 77.461 36.9837 77.7131 37.0858C77.9713 37.1878 78.2565 37.2389 78.5687 37.2389ZM78.4876 37.9953C78.0493 37.9953 77.6531 37.9203 77.2989 37.7702C76.9506 37.6201 76.6504 37.407 76.3983 37.1308C76.1521 36.8486 75.963 36.5064 75.8309 36.1041C75.6988 35.7019 75.6328 35.2516 75.6328 34.7533C75.6328 34.249 75.7018 33.7987 75.8399 33.4024C75.978 33.0002 76.1701 32.6609 76.4163 32.3848C76.6684 32.1026 76.9686 31.8865 77.3169 31.7364C77.6651 31.5863 78.0463 31.5112 78.4606 31.5112C78.9289 31.5112 79.3401 31.5923 79.6944 31.7544C80.0546 31.9105 80.3548 32.1326 80.5949 32.4208C80.8411 32.703 81.0272 33.0452 81.1533 33.4474C81.2794 33.8437 81.3424 34.279 81.3424 34.7533C81.3424 35.2876 81.2704 35.7589 81.1263 36.1672C80.9822 36.5694 80.7841 36.9056 80.5319 37.1758C80.2797 37.446 79.9796 37.6501 79.6313 37.7882C79.2831 37.9263 78.9019 37.9953 78.4876 37.9953ZM87.8437 37.7342C87.6696 37.8182 87.4655 37.8813 87.2313 37.9233C86.9972 37.9713 86.742 37.9953 86.4658 37.9953C85.9735 37.9953 85.5322 37.9233 85.142 37.7792C84.7577 37.6291 84.4305 37.416 84.1604 37.1398C83.8902 36.8636 83.6831 36.5334 83.539 36.1492C83.3949 35.7589 83.3228 35.3206 83.3228 34.8343C83.3228 34.3 83.3949 33.8257 83.539 33.4114C83.6831 32.9972 83.8902 32.6489 84.1604 32.3668C84.4305 32.0846 84.7547 31.8714 85.133 31.7274C85.5172 31.5833 85.9435 31.5112 86.4118 31.5112C86.772 31.5112 87.0632 31.5382 87.2853 31.5923C87.5135 31.6403 87.7026 31.6943 87.8527 31.7544L87.6996 32.4658C87.5015 32.3938 87.3004 32.3427 87.0962 32.3127C86.8921 32.2827 86.691 32.2677 86.4928 32.2677C85.7424 32.2677 85.169 32.4778 84.7728 32.8981C84.3825 33.3184 84.1874 33.9368 84.1874 34.7533C84.1874 35.1435 84.2414 35.4947 84.3495 35.8069C84.4636 36.1131 84.6227 36.3743 84.8268 36.5904C85.0309 36.8006 85.2801 36.9627 85.5743 37.0767C85.8684 37.1848 86.2017 37.2389 86.5739 37.2389C86.772 37.2389 86.9701 37.2208 87.1683 37.1848C87.3724 37.1488 87.5525 37.0918 87.7086 37.0137L87.8437 37.7342ZM93.5967 36.2212H90.904L90.2916 37.9053H89.472L91.8766 31.6013H92.6871L95.0466 37.9053H94.2001L93.5967 36.2212ZM91.1651 35.4827H93.3355L92.2818 32.5199H92.2458L91.1651 35.4827ZM98.4405 37.9053H97.63V32.3578H95.7658V31.6013H100.305V32.3578H98.4405V37.9053ZM104.685 37.2389C105.28 37.2389 105.745 37.0317 106.081 36.6175C106.423 36.1972 106.594 35.5758 106.594 34.7533C106.594 34.321 106.546 33.9488 106.45 33.6366C106.36 33.3244 106.228 33.0662 106.054 32.8621C105.88 32.6579 105.667 32.5078 105.415 32.4118C105.169 32.3157 104.889 32.2677 104.577 32.2677C104.301 32.2677 104.043 32.3187 103.803 32.4208C103.563 32.5229 103.355 32.676 103.181 32.8801C103.007 33.0842 102.869 33.3424 102.767 33.6546C102.665 33.9668 102.614 34.333 102.614 34.7533C102.614 35.1675 102.662 35.5308 102.758 35.843C102.86 36.1552 103.001 36.4163 103.181 36.6265C103.361 36.8306 103.578 36.9837 103.83 37.0858C104.088 37.1878 104.373 37.2389 104.685 37.2389ZM104.604 37.9953C104.166 37.9953 103.77 37.9203 103.415 37.7702C103.067 37.6201 102.767 37.407 102.515 37.1308C102.269 36.8486 102.08 36.5064 101.948 36.1041C101.815 35.7019 101.749 35.2516 101.749 34.7533C101.749 34.249 101.818 33.7987 101.957 33.4024C102.095 33.0002 102.287 32.6609 102.533 32.3848C102.785 32.1026 103.085 31.8865 103.433 31.7364C103.782 31.5863 104.163 31.5112 104.577 31.5112C105.045 31.5112 105.457 31.5923 105.811 31.7544C106.171 31.9105 106.471 32.1326 106.712 32.4208C106.958 32.703 107.144 33.0452 107.27 33.4474C107.396 33.8437 107.459 34.279 107.459 34.7533C107.459 35.2876 107.387 35.7589 107.243 36.1672C107.099 36.5694 106.901 36.9056 106.648 37.1758C106.396 37.446 106.096 37.6501 105.748 37.7882C105.4 37.9263 105.018 37.9953 104.604 37.9953ZM115.869 37.9053H115.059L114.672 32.9791L113.078 37.9053H112.231L110.646 32.9972L110.25 37.9053H109.439L109.98 31.6013H110.97L112.672 37.0227L114.339 31.6013H115.329L115.869 37.9053Z" fill="#025EA1"></path> </g> <defs> <radialGradient id="paint0_radial_1320_3336" cx="0" cy="0" r="1" gradientUnits="userSpaceOnUse" gradientTransform="translate(25.6458 23.1533) rotate(0.0556034) scale(7.7131 7.73275)"> <stop stop-color="#4495D1"></stop> <stop offset="0.4224" stop-color="#2E5FA1"></stop> <stop offset="0.8049" stop-color="#1C357B"></stop> <stop offset="1" stop-color="#15256D"></stop> </radialGradient> <linearGradient id="paint1_linear_1320_3336" x1="23.5906" y1="11.2037" x2="32.3898" y2="-1.20589" gradientUnits="userSpaceOnUse"> <stop stop-color="#4495D1"></stop> <stop offset="0.4224" stop-color="#2E5FA1"></stop> <stop offset="0.8049" stop-color="#1C357B"></stop> <stop offset="1" stop-color="#15256D"></stop> </linearGradient> <linearGradient id="paint2_linear_1320_3336" x1="10.4636" y1="43.5959" x2="3.73266" y2="21.6559" gradientUnits="userSpaceOnUse"> <stop stop-color="#4495D1"></stop> <stop offset="0.4224" stop-color="#2E5FA1"></stop> <stop offset="0.8049" stop-color="#1C357B"></stop> <stop offset="1" stop-color="#15256D"></stop> </linearGradient> <linearGradient id="paint3_linear_1320_3336" x1="44.3059" y1="29.9684" x2="39.9199" y2="47.0878" gradientUnits="userSpaceOnUse"> <stop stop-color="#4495D1"></stop> <stop offset="0.4224" stop-color="#2E5FA1"></stop> <stop offset="0.8049" stop-color="#1C357B"></stop> <stop offset="1" stop-color="#15256D"></stop> </linearGradient> <linearGradient id="paint4_linear_1320_3336" x1="17.9547" y1="19.2584" x2="12.5313" y2="6.57935" gradientUnits="userSpaceOnUse"> <stop stop-color="#4495D1"></stop> <stop offset="0.4224" stop-color="#2E5FA1"></stop> <stop offset="0.8049" stop-color="#1C357B"></stop> <stop offset="1" stop-color="#15256D"></stop> </linearGradient> <linearGradient id="paint5_linear_1320_3336" x1="29.4878" y1="41.7015" x2="12.3958" y2="45.3297" gradientUnits="userSpaceOnUse"> <stop stop-color="#4495D1"></stop> <stop offset="0.4224" stop-color="#2E5FA1"></stop> <stop offset="0.8049" stop-color="#1C357B"></stop> <stop offset="1" stop-color="#15256D"></stop> </linearGradient> <linearGradient id="paint6_linear_1320_3336" x1="40.2189" y1="16.8146" x2="46.8824" y2="32.4727" gradientUnits="userSpaceOnUse"> <stop stop-color="#4495D1"></stop> <stop offset="0.4224" stop-color="#2E5FA1"></stop> <stop offset="0.8049" stop-color="#1C357B"></stop> <stop offset="1" stop-color="#15256D"></stop> </linearGradient> <clipPath id="clip0_1320_3336"> <rect width="161" height="52" fill="white"></rect> </clipPath> </defs> </svg> 